<svg width="160" height="53" viewBox="0 0 160 53" fill="none" xmlns="http://www.w3.org/2000/svg">
<path d="M47.5795 31.1948H44.0626L44.0889 31.0837C44.3158 30.0686 44.6168 29.3754 44.9978 29.0096C45.3767 28.6427 45.9868 28.4599 46.8281 28.4599C47.1289 28.4599 47.4623 28.4983 47.8212 28.5754C48.1801 28.6566 48.4556 28.7347 48.6519 28.8117H48.9918L49.6968 25.2285C49.2989 25.1418 48.8283 25.0755 48.2794 25.022C47.7295 24.9686 47.0824 24.9461 46.3414 24.9461C44.3296 24.9461 42.8139 25.4413 41.7985 26.4339C40.7831 27.4244 40.0886 28.8791 39.7266 30.7852L39.64 31.1948H37.6946L37.0529 34.5364H38.9982L36.5515 47.0349H41.1293L43.5717 34.5364H46.9367L47.5795 31.1948Z" fill="#A81D21"/>
<path d="M50.6169 46.4764C51.2956 47.054 52.426 47.3428 54.0008 47.3428C54.7904 47.3428 55.4702 47.3043 56.038 47.2284C56.607 47.145 57.1453 47.0348 57.6603 46.8957L58.3285 43.4965H57.9496C57.7216 43.6173 57.4176 43.7275 57.0344 43.8237C56.6513 43.9253 56.3463 43.9735 56.1088 43.9735C55.5177 43.9735 55.0806 43.8623 54.7978 43.6409C54.5117 43.4237 54.3672 43.028 54.3608 42.4653C54.3577 42.1808 54.3882 41.8396 54.4621 41.4395C54.5349 41.0406 54.6089 40.6459 54.6891 40.2512L55.7963 34.5362H60.068L60.7234 31.1947H56.4518L57.3363 26.6691H52.7712L51.892 31.1947H50.0205L49.3651 34.5362H51.2333L49.781 42.0418C49.7155 42.4183 49.668 42.7456 49.6279 43.029C49.5878 43.3125 49.5698 43.6024 49.573 43.9051C49.5857 45.041 49.934 45.8978 50.6169 46.4764Z" fill="#A81D21"/>
<path fill-rule="evenodd" clip-rule="evenodd" d="M34.8943 36.9921C34.9112 38.4789 34.7022 39.8705 34.2737 41.1658C33.8409 42.4654 33.2277 43.5778 32.4266 44.5116C31.598 45.4785 30.6269 46.2262 29.5239 46.746C28.4167 47.2648 27.1215 47.5301 25.6375 47.5301C23.5223 47.5301 21.8936 46.9621 20.7505 45.8347C19.6116 44.7084 19.0279 43.1435 19.0058 41.1508C18.9889 39.7411 19.1852 38.4019 19.5884 37.1301C19.9969 35.8636 20.6048 34.7427 21.4218 33.7747C22.2092 32.8249 23.1834 32.075 24.3466 31.5252C25.5055 30.9755 26.8133 30.6974 28.2625 30.6974C30.3862 30.6974 32.0149 31.2557 33.1538 32.3724C34.2927 33.4869 34.8711 35.0272 34.8943 36.9921ZM29.0394 42.1819C29.4205 41.5231 29.7055 40.8053 29.8955 40.0245C30.0834 39.2447 30.172 38.297 30.1594 37.175C30.1467 36.207 29.9492 35.4604 29.564 34.9406C29.1787 34.4154 28.5718 34.1554 27.7475 34.1554C27.1047 34.1554 26.5452 34.3298 26.066 34.6807C25.5826 35.0272 25.1625 35.5182 24.7973 36.1589C24.4595 36.7515 24.1968 37.4874 24.0078 38.3602C23.82 39.2351 23.7312 40.1315 23.7418 41.0556C23.7544 42.1349 23.9793 42.9093 24.4163 43.3778C24.849 43.8388 25.4433 44.0752 26.1937 44.0752C26.7426 44.0752 27.2661 43.9061 27.7664 43.5735C28.2667 43.2366 28.6932 42.7745 29.0394 42.1819Z" fill="#A81D21"/>
<path d="M3.2785 46.9483C4.54195 47.2617 5.97635 47.4157 7.58495 47.4157C9.03522 47.4157 10.3325 47.2756 11.4766 46.9922C12.6166 46.7119 13.6373 46.2648 14.5324 45.654C15.3842 45.0807 16.0492 44.3288 16.5263 43.4089C17.0065 42.4901 17.2355 41.4215 17.2218 40.2075C17.2049 38.7582 16.7426 37.6126 15.8316 36.7654C14.9207 35.9183 13.4062 35.1813 11.293 34.5503C10.5056 34.3149 9.82059 34.0882 9.23689 33.8668C8.6553 33.6454 8.22566 33.4442 7.95229 33.256C7.6388 33.0485 7.42871 32.8367 7.32738 32.6196C7.22077 32.4035 7.17119 32.1286 7.16697 31.8013C7.15852 31.0836 7.4932 30.5253 8.16978 30.1209C8.84636 29.7166 9.81003 29.5156 11.0566 29.5156C12.3295 29.5156 13.5064 29.7466 14.5862 30.199C15.6649 30.6568 16.5389 31.2248 17.2028 31.8987H17.72L18.5877 27.065C17.7243 26.6318 16.6719 26.2842 15.4348 26.0339C14.1977 25.7793 12.8858 25.6542 11.4925 25.6542C8.60249 25.6542 6.33424 26.2799 4.68448 27.5367C3.03366 28.7892 2.22193 30.4739 2.24515 32.5779C2.25465 33.4165 2.39601 34.1331 2.66622 34.7353C2.94171 35.3364 3.33552 35.8713 3.85483 36.3291C4.37731 36.7805 5.00321 37.1708 5.73574 37.5035C6.47037 37.8297 7.29264 38.1335 8.2141 38.4181C9.05429 38.6823 9.73501 38.9143 10.2628 39.1154C10.7969 39.3176 11.2127 39.5198 11.5167 39.7273C11.8217 39.9337 12.0318 40.1455 12.1374 40.3573C12.2471 40.5691 12.3021 40.8204 12.3052 41.1135C12.3147 41.8943 11.998 42.4901 11.352 42.9094C10.7092 43.3287 9.69392 43.5352 8.31332 43.5352C6.96754 43.5352 5.70513 43.2944 4.52613 42.8131C3.35134 42.3264 2.32011 41.6429 1.44192 40.7573H0.911977L0 45.7931C0.920406 46.2552 2.01611 46.6403 3.2785 46.9483Z" fill="#A81D21"/>
<path d="M33.1136 0H36.2981L33.8693 11.138H30.6828L33.1136 0Z" fill="#787F82"/>
<path d="M48.6372 4.77333L50.4864 6.76608L40.0791 14.7476L38.2299 12.7559L48.6372 4.77333Z" fill="#787F82"/>
<path d="M8.03906 21.2074L8.66178 18.3525H20.9522L20.3294 21.2074H8.03906Z" fill="#787F82"/>
<path d="M121.639 28.9369L122.391 25.0862H117.563L116.811 28.9369H121.639Z" fill="#787F82"/>
<path d="M155.151 34.7769C155.154 35.0614 155.141 35.3641 155.11 35.6957C155.079 36.0241 155.032 36.3653 154.957 36.7215L152.956 47.0348H148.353L149.879 39.1773C149.993 38.5944 150.077 38.0991 150.142 37.6841C150.202 37.2702 150.231 36.8852 150.227 36.5236C150.22 35.9129 150.076 35.47 149.798 35.1855C149.514 34.901 149.004 34.7619 148.262 34.7619C147.899 34.7619 147.482 34.8496 147.013 35.0218C146.544 35.1951 146.018 35.4604 145.431 35.8059L143.249 47.0337H138.671L141.762 31.1936H146.34L145.992 32.9414C146.917 32.258 147.766 31.7177 148.532 31.3337C149.301 30.9487 150.143 30.7551 151.07 30.7551C152.343 30.7551 153.339 31.0963 154.054 31.7862C154.77 32.4761 155.135 33.4719 155.151 34.7769Z" fill="#787F82"/>
<path fill-rule="evenodd" clip-rule="evenodd" d="M138.432 31.1967H133.996L133.69 31.8995C133.282 31.5711 132.743 31.2973 132.08 31.0855C131.418 30.8683 130.679 30.7571 129.871 30.7571C127.621 30.7571 125.722 31.7594 124.169 33.7575C122.615 35.7555 121.859 38.3076 121.895 41.4223C121.916 43.2268 122.38 44.5756 123.288 45.4709C124.197 46.3619 125.443 46.81 127.035 46.81C127.855 46.81 128.587 46.6646 129.231 46.3715C129.878 46.0838 130.526 45.6891 131.175 45.1874L131.119 45.4859C130.989 46.179 130.822 46.7662 130.612 47.2476C130.402 47.7289 130.118 48.1332 129.76 48.4615C129.426 48.7696 128.968 49.0103 128.379 49.1739C127.789 49.3365 127.096 49.4189 126.297 49.4189C125.74 49.4189 125.101 49.3322 124.384 49.1493C123.664 48.9707 122.954 48.7343 122.251 48.4316H121.695L121.046 52.3272C121.691 52.5047 122.478 52.6587 123.417 52.7989C124.354 52.9326 125.329 53 126.352 53C127.582 53 128.689 52.8791 129.67 52.6341C130.656 52.3892 131.564 51.9592 132.399 51.3485C133.207 50.7559 133.897 49.9623 134.454 48.9643C135.017 47.9674 135.446 46.7213 135.74 45.2142L138.432 31.1967ZM133.143 34.8634C132.896 34.7394 132.57 34.6217 132.172 34.5168C131.77 34.4056 131.415 34.3543 131.114 34.3543C129.759 34.3543 128.673 34.9222 127.859 36.0635C127.047 37.2005 126.651 38.6638 126.672 40.4501C126.681 41.2587 126.866 41.8898 127.224 42.3369C127.583 42.7904 128.224 43.0172 129.143 43.0172C129.587 43.0172 130.039 42.9209 130.493 42.7273C130.953 42.5348 131.382 42.308 131.785 42.0427L133.143 34.8634Z" fill="#787F82"/>
<path d="M121.287 31.1948L118.187 47.0349H113.61L116.713 31.1948H121.287Z" fill="#787F82"/>
<path d="M101.142 47.0925C102.284 47.3428 103.465 47.4733 104.676 47.4733C107.144 47.4733 109.096 46.9631 110.533 45.9448C111.971 44.9244 112.68 43.5274 112.659 41.7615C112.647 40.5763 112.243 39.6565 111.445 38.9976C110.648 38.3376 109.356 37.7942 107.565 37.361C106.6 37.1247 105.894 36.8979 105.447 36.6776C104.997 36.4551 104.769 36.1374 104.763 35.7234C104.758 35.1886 105.018 34.7939 105.531 34.534C106.046 34.2741 106.786 34.1447 107.757 34.1447C108.65 34.1447 109.518 34.3073 110.372 34.6303C111.222 34.9587 111.948 35.378 112.552 35.8978H112.946L113.731 31.891C113.232 31.6171 112.447 31.3626 111.382 31.1209C110.318 30.8802 109.256 30.7593 108.195 30.7593C105.752 30.7593 103.819 31.2749 102.398 32.3049C100.977 33.336 100.276 34.7416 100.299 36.5268C100.31 37.5825 100.679 38.4638 101.398 39.1655C102.117 39.8736 103.446 40.4747 105.38 40.971C106.523 41.2641 107.276 41.509 107.641 41.7069C108.005 41.9048 108.19 42.1883 108.194 42.5637C108.2 43.0547 107.95 43.4312 107.444 43.6965C106.934 43.9553 106.171 44.0901 105.153 44.0901C104.472 44.0901 103.833 44.013 103.239 43.8537C102.651 43.6996 102.13 43.5167 101.679 43.2996C101.155 43.0632 100.75 42.8376 100.464 42.6215C100.18 42.4044 99.946 42.2065 99.7582 42.0279H99.3402L98.5179 46.2025C99.1301 46.5384 100.005 46.839 101.142 47.0925Z" fill="#787F82"/>
<path fill-rule="evenodd" clip-rule="evenodd" d="M89.7673 47.4597C87.347 47.4597 85.4735 46.8618 84.1467 45.6692C82.8178 44.4744 82.1423 42.8229 82.117 40.7136C82.1001 39.2792 82.3016 37.955 82.7143 36.7517C83.1313 35.5483 83.7361 34.4948 84.5373 33.5792C85.3036 32.6935 86.2609 31.9951 87.4188 31.4795C88.5746 30.9597 89.8476 30.6998 91.2367 30.6998C93.3551 30.6998 94.9531 31.1811 96.0381 32.1341C97.1232 33.0882 97.6794 34.4948 97.7005 36.357C97.7079 36.9977 97.6594 37.6234 97.5496 38.2353C97.4441 38.846 97.3016 39.4536 97.1221 40.0547H86.5839C86.5839 40.1135 86.5839 40.1659 86.5861 40.213V40.2169C86.5861 40.269 86.5861 40.3203 86.5881 40.3767C86.6008 41.4784 86.9555 42.3351 87.6521 42.9566C88.3509 43.578 89.4106 43.8904 90.8356 43.8904C91.8309 43.8904 92.7692 43.7021 93.6537 43.3224C94.5382 42.9469 95.3056 42.5287 95.9611 42.0709H96.4667L95.6687 46.1452C94.7884 46.5784 93.8606 46.9056 92.8832 47.127C91.91 47.3485 90.8671 47.4597 89.7673 47.4597ZM93.1186 37.0779C93.1418 36.9046 93.1618 36.7506 93.1703 36.6105C93.1808 36.4715 93.1882 36.3217 93.1871 36.173C93.1766 35.4318 92.9645 34.8627 92.5465 34.468C92.1317 34.0733 91.5331 33.8755 90.7573 33.8755C89.8211 33.8755 89.0391 34.1546 88.411 34.7183C87.7788 35.2863 87.3101 36.0714 86.9882 37.0769H93.1186V37.0779Z" fill="#787F82"/>
<path fill-rule="evenodd" clip-rule="evenodd" d="M79.1975 40.8139C80.2963 38.8019 80.8304 36.607 80.803 34.2281C80.7871 32.7595 80.5306 31.4942 80.0335 30.4235C79.5332 29.3603 78.8207 28.4693 77.8834 27.7515C77.2058 27.2274 76.3159 26.8082 75.216 26.4959C74.1173 26.1867 72.6702 26.0327 70.8758 26.0327H64.7845L60.6806 47.0337H67.493C69.1026 47.0337 70.4811 46.9268 71.6358 46.7161C72.7842 46.5043 73.8883 46.0818 74.9428 45.44C76.6854 44.3672 78.104 42.8269 79.1975 40.8139ZM75.2203 32.244C75.5465 32.9382 75.7154 33.7607 75.7281 34.7191C75.746 36.3567 75.4399 37.8681 74.8013 39.25C74.1669 40.632 73.2475 41.6728 72.0389 42.3648C71.6146 42.6098 71.2199 42.783 70.8621 42.89C70.5053 42.9905 70.1053 43.0675 69.662 43.1157C69.3179 43.1595 68.8641 43.183 68.3078 43.183H66.2981L68.9252 29.8705H70.3914C70.8875 29.8705 71.3318 29.8855 71.7171 29.924C72.1214 29.9721 72.4855 30.0438 72.8011 30.1454C73.1167 30.2406 73.4302 30.3861 73.7342 30.5743C74.3992 30.9979 74.8931 31.5562 75.2203 32.244Z" fill="#787F82"/>
<path d="M52.093 21.328L52.7169 18.4721H40.3388L39.7172 21.328H52.093Z" fill="#787F82"/>
<path d="M18.5275 5.04716L15.895 7.13078L23.2995 14.7476L25.933 12.6639L18.5275 5.04716Z" fill="#787F82"/>
<path fill-rule="evenodd" clip-rule="evenodd" d="M156.973 30.3308H156.545V27.6439H157.457C157.768 27.6439 157.994 27.6674 158.133 27.7177C158.272 27.7669 158.383 27.8546 158.467 27.9765C158.549 28.1006 158.59 28.2322 158.59 28.3712C158.59 28.568 158.52 28.7381 158.382 28.8846C158.245 29.029 158.061 29.1103 157.832 29.1296C157.926 29.1681 158.002 29.2162 158.058 29.2718C158.165 29.3777 158.297 29.5553 158.451 29.8056L158.775 30.3308H158.251L158.016 29.9072C157.83 29.5745 157.679 29.367 157.568 29.2825C157.489 29.2216 157.375 29.1894 157.224 29.1894H156.973V30.3308ZM157.495 28.8183H156.972V28.0075H157.46C157.669 28.0075 157.811 28.0225 157.889 28.0536C157.966 28.0846 158.027 28.1327 158.071 28.1947C158.115 28.2567 158.137 28.3284 158.137 28.4076C158.137 28.5317 158.091 28.6311 158.001 28.706C157.911 28.7798 157.74 28.8183 157.495 28.8183Z" fill="#787F82"/>
<path fill-rule="evenodd" clip-rule="evenodd" d="M158.748 26.8523C158.353 26.6373 157.951 26.5304 157.537 26.5304C157.122 26.5304 156.718 26.6373 156.323 26.8523C155.928 27.0684 155.62 27.3754 155.4 27.7765C155.179 28.1765 155.069 28.5948 155.069 29.0301C155.069 29.4611 155.178 29.8751 155.396 30.2719C155.614 30.6688 155.919 30.9779 156.309 31.1972C156.7 31.4175 157.109 31.5277 157.537 31.5277C157.963 31.5277 158.372 31.4175 158.763 31.1972C159.153 30.9779 159.458 30.6688 159.674 30.2719C159.892 29.8751 160 29.4611 160 29.0301C160 28.5948 159.89 28.1765 159.67 27.7765C159.449 27.3754 159.142 27.0684 158.748 26.8523ZM156.525 27.2139C156.853 27.0342 157.19 26.9443 157.537 26.9443C157.88 26.9443 158.22 27.0342 158.548 27.2139C158.876 27.3936 159.133 27.6514 159.317 27.9851C159.501 28.3199 159.593 28.6686 159.593 29.0312C159.593 29.3906 159.503 29.735 159.322 30.0655C159.14 30.396 158.888 30.6538 158.561 30.8378C158.232 31.0228 157.892 31.1148 157.538 31.1148C157.181 31.1148 156.841 31.0228 156.514 30.8378C156.187 30.6538 155.933 30.396 155.751 30.0655C155.568 29.735 155.477 29.3906 155.477 29.0312C155.477 28.6686 155.57 28.3199 155.755 27.9851C155.94 27.6514 156.196 27.3936 156.525 27.2139Z" fill="#787F82"/>
</svg>
